<svg width="20" height="20" viewBox="0 0 20 20" fill="none" xmlns="http://www.w3.org/2000/svg">
<path d="M15.5917 7.1215C15.5142 7.04339 15.422 6.9814 15.3205 6.93909C15.2189 6.89678 15.11 6.875 15 6.875C14.89 6.875 14.7811 6.89678 14.6795 6.93909C14.578 6.9814 14.4858 7.04339 14.4083 7.1215L10.5917 10.9382C10.5142 11.0163 10.422 11.0783 10.3205 11.1206C10.2189 11.1629 10.11 11.1847 10 11.1847C9.89 11.1847 9.78108 11.1629 9.67953 11.1206C9.57798 11.0783 9.48581 11.0163 9.40834 10.9382L5.59168 7.1215C5.51421 7.04339 5.42204 6.9814 5.32049 6.93909C5.21894 6.89678 5.11002 6.875 5.00001 6.875C4.89 6.875 4.78108 6.89678 4.67953 6.93909C4.57798 6.9814 4.48581 7.04339 4.40834 7.1215C4.25313 7.27763 4.16602 7.48884 4.16602 7.709C4.16602 7.92915 4.25313 8.14036 4.40834 8.2965L8.23334 12.1215C8.70209 12.5897 9.33751 12.8526 10 12.8526C10.6625 12.8526 11.2979 12.5897 11.7667 12.1215L15.5917 8.2965C15.7469 8.14036 15.834 7.92915 15.834 7.709C15.834 7.48884 15.7469 7.27763 15.5917 7.1215Z" fill="#144EB6"/>
</svg>
